<?xml version="1.0" encoding="utf-8"?>
<!-- Generator: Adobe Illustrator 18.1.1, SVG Export Plug-In . SVG Version: 6.00 Build 0)  -->
<svg version="1.1" id="Layer_1" xmlns="http://www.w3.org/2000/svg" xmlns:xlink="http://www.w3.org/1999/xlink" x="0px" y="0px"
	 viewBox="0 0 35 35" enable-background="new 0 0 35 35" xml:space="preserve">
<g id="Page_1" transform="matrix(0.17893165,0,0,0.17893165,-129.37356,1149.0013)">
	<g id="BackBone.JS">
		<path id="Path" fill="#C3DBED" d="M745.8-6414.6v99.4l74,42.2v-28.7l-49.5-28.2v-44.3l49.5,28.2v-26.4L745.8-6414.6z"/>
		<path id="path2996" fill="#C3DBED" d="M893.7-6414.6v99.4l-74,42.2v-28.7l49.5-28.2v-44.3l-49.5,28.2v-26.4L893.7-6414.6z"/>
		<path id="path2998" fill="#C3DBED" d="M745.8-6230.8v-99.4l74-42.2v28.7l-49.5,28.2v42.1l49.5-28.2v28.7L745.8-6230.8z"/>
		<path id="path3000" fill="#C3DBED" d="M893.7-6230.8v-99.4l-74-42.2v28.7l49.5,28.2v42.1l-49.5-28.2v28.7L893.7-6230.8z"/>
	</g>
</g>
</svg>
