<?xml version="1.0" encoding="utf-8"?>
<!-- Generator: Adobe Illustrator 18.1.1, SVG Export Plug-In . SVG Version: 6.00 Build 0)  -->
<svg version="1.1" id="Layer_1" xmlns="http://www.w3.org/2000/svg" xmlns:xlink="http://www.w3.org/1999/xlink" x="0px" y="0px"
	 viewBox="0 0 35 35" enable-background="new 0 0 35 35" xml:space="preserve">
<g id="Layer_1_1_">
	<path id="Shape" fill="#151515" d="M24.9,1.4h-2L25,3.7v1.1h-4.4V3.5h2.1l-2.1-2.3V0.1h4.3V1.4L24.9,1.4z M19.8,1.4h-2l2.1,2.3v1.1
		h-4.4V3.5h2.1l-2.1-2.3V0.1h4.3V1.4L19.8,1.4z M14.6,1.4h-2.2v2h2.2v1.3h-3.8V0.1h3.8V1.4L14.6,1.4z"/>
	<path id="Shape_1_" fill="#1673B6" d="M7.8,32.1L5.6,6.9h24.7L28,32.1l-10.1,2.8L7.8,32.1z"/>
	<path id="Shape_2_" fill="#35A9DB" d="M17.9,32.8l8.2-2.3L28,9H17.9V32.8z"/>
	<g id="Group" transform="translate(55.000000, 142.000000)">
		<path id="Shape_3_" fill="#FFFFFF" d="M-37.1-123.9h4.1l0.3-3.2h-4.4v-3.1h0h7.7l-0.1,0.8l-0.8,8.5h-6.9V-123.9z"/>
		<path id="Shape_4_" fill="#EBEBEB" d="M-37.1-115.9L-37.1-115.9l-3.5-0.9l-0.2-2.5h-1.7h-1.4l0.4,4.9l6.3,1.8l0,0V-115.9z"/>
		<path id="Shape_5_" fill="#FFFFFF" d="M-33.2-120.9l-0.4,4.1l-3.4,0.9v3.2l6.3-1.8l0-0.5l0.5-6H-33.2z"/>
		<path id="Shape_6_" fill="#EBEBEB" d="M-37.1-130.1v1.9v1.2v0h-7.5h0l-0.1-0.7l-0.1-1.6l-0.1-0.8H-37.1z"/>
		<path id="Shape_7_" fill="#EBEBEB" d="M-37.1-123.9v1.9v1.2v0h-3.4h0l-0.1-0.7l-0.1-1.6l-0.1-0.8H-37.1z"/>
	</g>
</g>
</svg>
