<?xml version="1.0" encoding="utf-8"?>
<!-- Generator: Adobe Illustrator 18.1.1, SVG Export Plug-In . SVG Version: 6.00 Build 0)  -->
<svg version="1.1" id="Layer_1" xmlns="http://www.w3.org/2000/svg" xmlns:xlink="http://www.w3.org/1999/xlink" x="0px" y="0px"
	 viewBox="0 0 35 35" enable-background="new 0 0 35 35" xml:space="preserve">
<g id="Layer_1_1_">
	<path id="Shape" fill="#C3DBED" d="M24.9,1.4h-2L25,3.7v1.1h-4.4V3.5h2.1l-2.1-2.3V0.1h4.3V1.4L24.9,1.4z M19.8,1.4h-2l2.1,2.3v1.1
		h-4.4V3.5h2.1l-2.1-2.3V0.1h4.3V1.4L19.8,1.4z M14.6,1.4h-2.2v2h2.2v1.3h-3.8V0.1h3.8V1.4L14.6,1.4z"/>
	<path fill="#C3DBED" d="M5.6,6.9l2.2,25.2l10.1,2.8L28,32.1l2.2-25.2H5.6z M25.6,12.7l-0.7,8.4h0l-0.5,6l0,0.5l-6.3,1.8v0l0,0
		l-6.3-1.8l-0.4-4.9h1.4h1.7l0.2,2.5l3.4,0.9l0,0v0l3.4-0.9l0.4-4h-3.8v0h-3.4h0l-0.1-0.7l-0.1-1.6l-0.1-0.8h3.7v0H22l0.3-3.2h-4.4
		h0h-7.4h0l-0.1-0.7l-0.1-1.6l-0.1-0.8h7.7h0h7.7L25.6,12.7z"/>
</g>
</svg>
