<?xml version="1.0" encoding="utf-8"?>
<!-- Generator: Adobe Illustrator 18.1.1, SVG Export Plug-In . SVG Version: 6.00 Build 0)  -->
<svg version="1.1" id="Layer_1" xmlns="http://www.w3.org/2000/svg" xmlns:xlink="http://www.w3.org/1999/xlink" x="0px" y="0px"
	 viewBox="0 0 35 35" enable-background="new 0 0 35 35" xml:space="preserve">
<linearGradient id="SVGID_1_" gradientUnits="userSpaceOnUse" x1="13.7053" y1="30.619" x2="35.156" y2="9.1684" gradientTransform="matrix(1 0 0 -1 0 35)">
	<stop  offset="0" style="stop-color:#F9A13E"/>
	<stop  offset="1" style="stop-color:#F89850"/>
</linearGradient>
<path fill="url(#SVGID_1_)" d="M34.4,25.2c0-0.1,0-0.3,0-0.4c0-0.2-10.7-10.3-10.7-10.3h-0.3C23.5,14.4,34.3,25.8,34.4,25.2z"/>
<linearGradient id="SVGID_2_" gradientUnits="userSpaceOnUse" x1="-2.2899" y1="27.0299" x2="16.7014" y2="8.0385" gradientTransform="matrix(1 0 0 -1 0 35)">
	<stop  offset="0" style="stop-color:#F9A13E"/>
	<stop  offset="1" style="stop-color:#F89850"/>
</linearGradient>
<path fill="url(#SVGID_2_)" d="M11.6,21.6C11.6,21.7,11.6,21.7,11.6,21.6c-0.1,0.1-0.1,0.2-0.1,0.2c-0.3,0.7,4.8,5.7,5.2,5.1
	c0,0,0-0.1,0.1-0.1c0,0,0-0.1,0.1-0.1C17.1,26.2,11.8,21.3,11.6,21.6z"/>
<linearGradient id="SVGID_3_" gradientUnits="userSpaceOnUse" x1="4.7648" y1="20.1995" x2="24.0016" y2="0.9628" gradientTransform="matrix(1 0 0 -1 0 35)">
	<stop  offset="0" style="stop-color:#F9A13E"/>
	<stop  offset="1" style="stop-color:#F89850"/>
</linearGradient>
<path fill="url(#SVGID_3_)" d="M18.8,28.7c0,0-0.1,0.2-0.2,0.3c0,0,5,5,5,5H24C24,33.9,19.4,28.9,18.8,28.7z"/>
<linearGradient id="SVGID_4_" gradientUnits="userSpaceOnUse" x1="1.1339" y1="33.695" x2="31.2463" y2="3.5826" gradientTransform="matrix(1 0 0 -1 0 35)">
	<stop  offset="0" style="stop-color:#F16D59"/>
	<stop  offset="1" style="stop-color:#F9A13E"/>
</linearGradient>
<path fill="url(#SVGID_4_)" d="M34.4,24.6c-0.2,5.2-4.5,9.3-9.8,9.3H24l-5.2-5.2c0.4-0.6,0.8-1.2,1.2-1.9h4.8c1.5,0,2.7-1.2,2.7-2.7
	c0-1.5-1.2-2.7-2.7-2.7h-2.8c0.2-1.1,0.3-2.3,0.3-3.5c0-1.2-0.1-2.4-0.3-3.6h1.7L34.4,25C34.4,24.9,34.4,24.8,34.4,24.6z M3.4,1.9
	H0.5v7h2.8c5,0,9,4,9,9c0,1.4-0.3,2.6-0.8,3.8l5.2,5.1c1.7-2.5,2.7-5.6,2.7-8.9C19.5,9.1,12.2,1.9,3.4,1.9z"/>
<linearGradient id="SVGID_5_" gradientUnits="userSpaceOnUse" x1="16.5319" y1="36.4841" x2="38.7353" y2="14.2808" gradientTransform="matrix(1 0 0 -1 0 35)">
	<stop  offset="0" style="stop-color:#B94E52"/>
	<stop  offset="1" style="stop-color:#F68E4A"/>
</linearGradient>
<path fill="url(#SVGID_5_)" d="M24.7,1.9H13.2c2.8,1.7,5.1,4.2,6.7,7h4.8c1.5,0,2.7,1.2,2.7,2.7c0,1.5-1.2,2.7-2.7,2.7h-1.1L34.4,25
	c0-0.3,0-0.6,0-0.9c0-2.4-0.9-4.6-2.3-6.3c1.4-1.7,2.3-3.9,2.3-6.3C34.5,6.3,30.1,1.9,24.7,1.9z"/>
<linearGradient id="SVGID_6_" gradientUnits="userSpaceOnUse" x1="2.8927" y1="10.391" x2="18.0983" y2="-4.8146" gradientTransform="matrix(1 0 0 -1 0 35)">
	<stop  offset="0" style="stop-color:#F9A13E"/>
	<stop  offset="1" style="stop-color:#F89850"/>
</linearGradient>
<path fill="url(#SVGID_6_)" d="M24,33.9H13.2c2.2-1.3,4-3.1,5.5-5.2L24,33.9z M16.8,26.8l-5.2-5.1C10.1,24.8,7,27,3.4,27H0.5v7h2.8
	C9,34,13.9,31.2,16.8,26.8z"/>
</svg>
