<?xml version="1.0" encoding="utf-8"?>
<!-- Generator: Adobe Illustrator 18.1.1, SVG Export Plug-In . SVG Version: 6.00 Build 0)  -->
<svg version="1.1" id="Layer_1" xmlns="http://www.w3.org/2000/svg" xmlns:xlink="http://www.w3.org/1999/xlink" x="0px" y="0px"
	 viewBox="0 0 35 35" enable-background="new 0 0 35 35" xml:space="preserve">
<path fill="#C3DBED" d="M7.4,0H9v1.6h1.4V0H12v4.7h-1.6V3.1H9v1.6H7.4L7.4,0L7.4,0z"/>
<path fill="#C3DBED" d="M14.1,1.6h-1.4V0H17v1.6h-1.4v3.2h-1.6L14.1,1.6L14.1,1.6z"/>
<path fill="#C3DBED" d="M17.7,0h1.6l1,1.7l1-1.7h1.6v4.7h-1.6V2.4l-1.1,1.7h0l-1.1-1.7v2.3h-1.5V0z"/>
<path fill="#C3DBED" d="M23.8,0h1.6v3.2h2.2v1.6h-3.8V0z"/>
<path fill="#C3DBED" d="M5.1,6.9l2.3,25.3L17.5,35l10.2-2.8l2.3-25.3H5.1z M25.2,12.9L25,14.5L25,15.2h0h-7.5h0h-4.4l0.3,3.2h4.1h0
	h6.4h0.8l-0.1,0.8l-0.7,8.2l0,0.5l-6.4,1.8v0l0,0l-6.4-1.8L10.7,23h1.4h1.7l0.2,2.5l3.5,0.9l0,0v0l3.5-0.9l0.4-4h-3.8h0h-6.9
	l-0.8-8.6l-0.1-0.8h7.8h0h7.8L25.2,12.9z"/>
</svg>
