<?xml version="1.0" encoding="utf-8"?>
<!-- Generator: Adobe Illustrator 18.1.1, SVG Export Plug-In . SVG Version: 6.00 Build 0)  -->
<svg version="1.1" id="Layer_1" xmlns="http://www.w3.org/2000/svg" xmlns:xlink="http://www.w3.org/1999/xlink" x="0px" y="0px"
	 viewBox="0 0 35 35" enable-background="new 0 0 35 35" xml:space="preserve">
<polygon fill="#E44F26" points="7.4,32.2 5.1,6.9 29.9,6.9 27.6,32.2 17.5,35 "/>
<polygon fill="#F1662A" points="17.5,32.8 25.7,30.6 27.6,8.9 17.5,8.9 "/>
<polygon fill="#EBEBEB" points="17.5,18.3 13.4,18.3 13.1,15.2 17.5,15.2 17.5,12.1 17.5,12.1 9.7,12.1 9.8,12.9 10.6,21.4 
	17.5,21.4 "/>
<polygon fill="#EBEBEB" points="17.5,26.4 17.5,26.4 14,25.5 13.8,23 12.1,23 10.7,23 11.1,27.9 17.5,29.6 17.5,29.6 "/>
<path fill="#010101" d="M7.4,0H9v1.6h1.4V0H12v4.7h-1.6V3.1H9v1.6H7.4L7.4,0L7.4,0z"/>
<path fill="#010101" d="M14.1,1.6h-1.4V0H17v1.6h-1.4v3.2h-1.6L14.1,1.6L14.1,1.6z"/>
<path fill="#010101" d="M17.7,0h1.6l1,1.7l1-1.7h1.6v4.7h-1.6V2.4l-1.1,1.7h0l-1.1-1.7v2.3h-1.5V0z"/>
<path fill="#010101" d="M23.8,0h1.6v3.2h2.2v1.6h-3.8V0z"/>
<polygon fill="#FFFFFF" points="17.5,18.3 17.5,21.4 21.3,21.4 21,25.5 17.5,26.4 17.5,29.6 23.9,27.9 23.9,27.3 24.6,19.2 
	24.7,18.3 23.9,18.3 "/>
<polygon fill="#FFFFFF" points="17.5,12.1 17.5,14 17.5,15.1 17.5,15.2 25,15.2 25,15.2 25,15.2 25,14.5 25.2,12.9 25.3,12.1 "/>
</svg>
