<?xml version="1.0" encoding="utf-8"?>
<!-- Generator: Adobe Illustrator 18.1.1, SVG Export Plug-In . SVG Version: 6.00 Build 0)  -->
<svg version="1.1" id="Layer_1" xmlns="http://www.w3.org/2000/svg" xmlns:xlink="http://www.w3.org/1999/xlink" x="0px" y="0px"
	 viewBox="0 0 35 35" enable-background="new 0 0 35 35" xml:space="preserve">
<path id="path7508" fill="#C3DBED" d="M17.5,25.6c7.3,10,14.4-2.8,14.4-10.4C31.9,6.1,22.7,1,17.5,1C9,1,1,8,1,17.5
	C1,28.1,10.2,34,17.5,34c-1.6-0.2-7.1-1.4-7.2-14c0-8.5,2.8-11.9,7.2-10.4c0.1,0,4.8,1.9,4.8,8C22.3,23.7,17.5,25.6,17.5,25.6z"/>
<path id="path7510" fill="#C3DBED" d="M17.5,9.5C12.6,7.9,6.7,11.9,6.7,19.8c0,13,9.6,14.2,10.8,14.2C26,34,34,27,34,17.5
	C34,6.9,24.8,1,17.5,1c2-0.3,10.8,2.2,10.8,14.2c0,7.9-6.6,12.1-10.9,10.3c-0.1,0-4.8-1.9-4.8-8C12.6,11.4,17.5,9.5,17.5,9.5z"/>
</svg>
