<?xml version="1.0" encoding="utf-8"?>
<!-- Generator: Adobe Illustrator 18.1.1, SVG Export Plug-In . SVG Version: 6.00 Build 0)  -->
<svg version="1.1" id="Layer_1" xmlns="http://www.w3.org/2000/svg" xmlns:xlink="http://www.w3.org/1999/xlink" x="0px" y="0px"
	 viewBox="0 0 35 35" enable-background="new 0 0 35 35" xml:space="preserve">
<g transform="translate(0.738281, 121.593)">
	<path fill="#06628B" d="M0.5-97.5h1.1v-4.3L3.2-98c0.2,0.5,0.5,0.6,1,0.6c0.5,0,0.8-0.2,1-0.6l1.7-3.7v4.3H8v-4.3
		c0-0.4-0.2-0.6-0.5-0.7c-0.8-0.3-1.4,0-1.6,0.5l-1.6,3.7l-1.6-3.7c-0.2-0.6-0.8-0.8-1.6-0.5c-0.3,0.1-0.5,0.3-0.5,0.7V-97.5z"/>
</g>
<g transform="translate(100.444, 142.416)">
	<path fill="#06628B" d="M-90.9-121.8h1.1v2.4c0,0.1,0,0.4,0.6,0.4c0.3,0,2.3,0,2.3,0v-2.8h1.1c0,0,0,3.8,0,3.8
		c0,0.9-1.2,1.1-1.7,1.2h-3.4v-0.7c0,0,3.4,0,3.4,0c0.7-0.1,0.6-0.4,0.6-0.5v-0.3h-2.3c-1.1,0-1.7-0.5-1.8-1
		C-90.9-119.4-90.8-121.8-90.9-121.8z"/>
</g>
<g transform="translate(171.496, 124.557)">
	<path fill="#E38F25" d="M-155.9-100.4h3.1c0.4,0,0.7-0.1,1-0.2c0.5-0.2,0.7-0.5,0.7-0.9v-0.8c0-0.3-0.3-0.6-0.8-0.8
		c-0.3-0.1-0.6-0.2-0.9-0.2h-1.3c-0.4,0-0.6-0.1-0.7-0.4c0,0,0-0.1,0-0.1v-0.5c0,0,0-0.1,0-0.1c0.1-0.2,0.2-0.3,0.6-0.3
		c0,0,0.1,0,0.1,0h3.1v-0.7h-3c-0.4,0-0.7,0-0.9,0.1c-0.6,0.2-0.9,0.5-0.9,1.1v0.6c0,0.5,0.6,0.9,1.5,1c0.1,0,0.2,0,0.3,0h1.1
		c0,0,0.1,0,0.1,0c0.3,0,0.5,0.1,0.6,0.2c0.1,0.1,0.1,0.1,0.1,0.2v0.6c0,0.1-0.1,0.2-0.2,0.3c-0.1,0.1-0.2,0.1-0.5,0.2
		c0,0-0.1,0-0.1,0h-3V-100.4z"/>
</g>
<g transform="translate(308.656, 124.557)">
	<path fill="#E38F25" d="M-281.5-101.7c0,0.7,0.6,1.2,1.7,1.2c0.1,0,0.2,0,0.3,0h2.8v-0.7h-2.8c-0.6,0-0.9-0.2-0.9-0.5v-3.7h-1.1
		V-101.7z"/>
</g>
<g transform="translate(236.74, 124.666)">
	<path fill="#E38F25" d="M-215.7-101.8v-2.6c0-0.7,0.5-1,1.4-1.2c0.1,0,0.2,0,0.3,0h2.1c0.1,0,0.2,0,0.3,0c0.9,0.1,1.4,0.5,1.4,1.2
		v2.6c0,0.5-0.2,0.8-0.6,1l1.1,1h-1.3l-0.9-0.8l-0.9,0.1h-1.2c-0.2,0-0.4,0-0.6-0.1C-215.3-100.8-215.7-101.2-215.7-101.8z
		 M-214.5-101.8c0,0,0,0.1,0,0.1c0.1,0.3,0.3,0.5,0.8,0.5h1l-0.9-0.8h1.3l0.8,0.7c0.1-0.1,0.2-0.2,0.3-0.3c0,0,0-0.1,0-0.1v-2.5
		c0,0,0-0.1,0-0.1c-0.1-0.3-0.3-0.4-0.8-0.4h-1.6c-0.5,0-0.8,0.2-0.8,0.5V-101.8z"/>
</g>
<g transform="translate(241.59, -4.64258)">
	<path fill="#06628B" d="M-208.7,22.6c-0.7,0-1.2,0-1.6,0.2c-0.1,0.1-0.3,0.1-0.3,0.2c0.1,0.1,0.1,0.2,0.1,0.3
		c0.1,0.2,0.3,0.4,0.4,0.5c0.2,0.1,0.3,0.3,0.5,0.4c0.3,0.2,0.7,0.3,1,0.5c0.2,0.1,0.4,0.3,0.5,0.4c0.1,0.1,0.1,0.2,0.3,0.2
		c0,0,0,0,0,0c-0.1-0.1-0.1-0.2-0.1-0.3c-0.1-0.1-0.2-0.2-0.2-0.2c-0.2-0.3-0.5-0.6-0.9-0.8c-0.3-0.2-0.8-0.4-0.9-0.7c0,0,0,0,0,0
		c0.2,0,0.4-0.1,0.6-0.1c0.3-0.1,0.5-0.1,0.8-0.1c0.1,0,0.3-0.1,0.4-0.1c0,0,0-0.1,0-0.1c-0.1-0.2-0.3-0.4-0.4-0.5
		c-0.4-0.4-0.9-0.7-1.4-1c-0.3-0.2-0.6-0.3-0.9-0.4c-0.1,0-0.3-0.1-0.3-0.2c-0.1-0.2-0.2-0.4-0.3-0.6c-0.2-0.5-0.5-1-0.7-1.4
		c-0.1-0.3-0.2-0.7-0.4-0.9c-0.9-1.4-1.8-2.3-3.2-3.1c-0.3-0.2-0.7-0.2-1.1-0.3c-0.2,0-0.4,0-0.6,0c-0.1-0.1-0.3-0.2-0.4-0.3
		c-0.5-0.3-1.7-1-2-0.1c-0.2,0.5,0.3,1.1,0.5,1.3c0.1,0.2,0.3,0.4,0.4,0.6c0.1,0.1,0.1,0.3,0.1,0.4c0.1,0.4,0.3,0.8,0.4,1.1
		c0.1,0.2,0.2,0.4,0.3,0.5c0.1,0.1,0.2,0.1,0.2,0.3c-0.1,0.2-0.1,0.4-0.2,0.6c-0.3,0.9-0.2,2.1,0.2,2.8c0.1,0.2,0.4,0.7,0.9,0.5
		c0.4-0.2,0.3-0.6,0.4-1c0-0.1,0-0.2,0.1-0.2c0,0,0,0,0,0c0.1,0.2,0.2,0.5,0.3,0.7c0.3,0.4,0.7,0.8,1.1,1.1c0.2,0.1,0.4,0.4,0.6,0.5
		c0,0,0,0,0,0c0,0,0,0,0,0c0-0.1-0.1-0.1-0.2-0.2c-0.1-0.1-0.3-0.3-0.4-0.5c-0.3-0.5-0.6-1-0.9-1.5c-0.1-0.3-0.2-0.5-0.4-0.8
		c0-0.1,0-0.3-0.1-0.3c-0.1,0.2-0.3,0.3-0.4,0.6c-0.2,0.4-0.2,0.8-0.2,1.2c0,0,0,0,0,0c-0.3-0.1-0.4-0.3-0.5-0.6
		c-0.2-0.6-0.3-1.5-0.1-2.2c0.1-0.2,0.3-0.7,0.2-0.9c0-0.2-0.2-0.3-0.3-0.4c-0.1-0.2-0.2-0.4-0.3-0.5c-0.2-0.5-0.3-1-0.5-1.4
		c-0.1-0.2-0.3-0.4-0.4-0.6c-0.2-0.2-0.3-0.4-0.5-0.6c0-0.1-0.1-0.2,0-0.3c0-0.1,0-0.1,0.1-0.1c0.1-0.1,0.4,0,0.5,0.1
		c0.3,0.1,0.6,0.2,0.8,0.4c0.1,0.1,0.2,0.2,0.4,0.3c0.1,0,0.1,0,0.2,0c0.3,0.1,0.6,0,0.8,0.1c0.4,0.1,0.8,0.3,1.2,0.6
		c1.1,0.7,2,1.7,2.6,2.8c0.1,0.2,0.1,0.4,0.2,0.6c0.2,0.4,0.4,0.8,0.6,1.2c0.2,0.4,0.3,0.8,0.6,1.1c0.1,0.2,0.6,0.3,0.9,0.4
		c0.2,0.1,0.4,0.1,0.6,0.2c0.3,0.2,0.6,0.4,0.8,0.6C-209.2,22.2-208.8,22.4-208.7,22.6z"/>
</g>
<g transform="translate(272.504, 24.8027)">
	<path fill="#06628B" d="M-248.1-14.1c-0.1,0-0.2,0-0.3,0c0,0,0,0,0,0c0,0,0,0,0,0c0.1,0.1,0.2,0.2,0.3,0.3c0.1,0.1,0.1,0.3,0.2,0.4
		c0,0,0,0,0,0c0.1-0.1,0.2-0.2,0.2-0.4c0,0-0.1-0.1-0.1-0.2C-247.9-14-248-14-248.1-14.1z"/>
</g>
<g transform="translate(371.609, 165.56)">
	<path fill="#E38F25" d="M-339.2-142.2c0,0.5,0.4,0.8,0.8,0.8s0.8-0.3,0.8-0.8c0-0.5-0.4-0.8-0.8-0.8S-339.2-142.7-339.2-142.2z
		 M-337.8-142.2c0,0.4-0.3,0.6-0.6,0.6c-0.3,0-0.6-0.3-0.6-0.6s0.3-0.6,0.6-0.6C-338.1-142.8-337.8-142.6-337.8-142.2z
		 M-338.2-141.7h0.2l-0.3-0.4c0.1,0,0.2-0.1,0.2-0.2c0-0.2-0.1-0.3-0.3-0.3h-0.4v0.9h0.2v-0.4h0.1L-338.2-141.7z M-338.6-142.3v-0.3
		h0.2c0.1,0,0.2,0,0.2,0.1c0,0.1-0.1,0.1-0.2,0.1H-338.6z"/>
</g>
</svg>
