<?xml version="1.0" encoding="utf-8"?>
<!-- Generator: Adobe Illustrator 18.1.1, SVG Export Plug-In . SVG Version: 6.00 Build 0)  -->
<svg version="1.1" id="Layer_3" xmlns="http://www.w3.org/2000/svg" xmlns:xlink="http://www.w3.org/1999/xlink" x="0px" y="0px"
	 viewBox="0 0 35 35" enable-background="new 0 0 35 35" xml:space="preserve">
<g>
	<path fill="#C2DBEE" d="M10.4,15.3H9.3l-0.6,3.2h0.9c0.7,0,1.3-0.1,1.6-0.4c0.3-0.3,0.6-0.7,0.7-1.3c0.1-0.6,0.1-1-0.1-1.2
		C11.5,15.4,11.2,15.3,10.4,15.3z"/>
	<path fill="#C2DBEE" d="M25.6,15.3h-1.1l-0.6,3.2h0.9c0.7,0,1.3-0.1,1.6-0.4c0.3-0.3,0.6-0.7,0.7-1.3c0.1-0.6,0.1-1-0.1-1.2
		C26.7,15.4,26.4,15.3,25.6,15.3z"/>
	<path fill="#C2DBEE" d="M17.4,8.6c-9.4,0-16.9,4-16.9,8.9s7.6,8.9,16.9,8.9c9.4,0,16.9-4,16.9-8.9S26.8,8.6,17.4,8.6z M18.5,20.4
		c-0.1,0-0.2,0-0.2-0.1c0-0.1-0.1-0.1-0.1-0.2l0.8-4c0.1-0.5,0-0.6,0-0.7c0,0-0.2-0.2-0.8-0.2h-1.3l-1,4.9c0,0.1-0.1,0.2-0.3,0.2
		h-1.9c-0.1,0-0.2,0-0.2-0.1s-0.1-0.1-0.1-0.2l0.3-1.8c-0.2,0.4-0.5,0.7-0.8,1c-0.4,0.4-0.9,0.7-1.4,0.8c-0.5,0.2-1.1,0.2-1.9,0.2
		H8.3l-0.4,2.2c0,0.1-0.1,0.2-0.3,0.2H5.6c-0.1,0-0.2,0-0.2-0.1c0-0.1-0.1-0.1-0.1-0.2l1.7-8.9c0-0.1,0.1-0.2,0.3-0.2h3.7
		c1.2,0,2.1,0.3,2.7,1c0.3,0.3,0.5,0.8,0.6,1.3l0.9-4.4c0-0.1,0.1-0.2,0.3-0.2h1.9c0.1,0,0.2,0,0.2,0.1c0,0.1,0.1,0.1,0.1,0.2
		l-0.4,2.1h1.4c1.2,0,2,0.2,2.4,0.6c0.5,0.4,0.6,1.1,0.5,2.1l-0.8,4.2c0,0.1-0.1,0.2-0.3,0.2H18.5z M29.5,17
		c-0.1,0.5-0.2,0.9-0.5,1.3s-0.5,0.7-0.8,1.1c-0.4,0.4-0.9,0.7-1.4,0.8c-0.5,0.2-1.1,0.2-1.9,0.2h-1.4l-0.4,2.2
		c0,0.1-0.1,0.2-0.3,0.2h-1.9c-0.1,0-0.2,0-0.2-0.1c0-0.1-0.1-0.1-0.1-0.2l1.7-8.9c0-0.1,0.1-0.2,0.3-0.2h3.7c1.2,0,2.1,0.3,2.7,1
		C29.6,15,29.7,15.9,29.5,17z"/>
</g>
</svg>
