<?xml version="1.0" encoding="utf-8"?>
<!-- Generator: Adobe Illustrator 18.1.1, SVG Export Plug-In . SVG Version: 6.00 Build 0)  -->
<svg version="1.1" id="Layer_1" xmlns="http://www.w3.org/2000/svg" xmlns:xlink="http://www.w3.org/1999/xlink" x="0px" y="0px"
	 viewBox="0 0 35 35" enable-background="new 0 0 35 35" xml:space="preserve">
<g>
	
		<linearGradient id="path1948_1_" gradientUnits="userSpaceOnUse" x1="240.2511" y1="-263.2953" x2="273.4132" y2="-291.8269" gradientTransform="matrix(0.5625 0 0 -0.568 -135.3879 -148.1649)">
		<stop  offset="0" style="stop-color:#5C9FD3"/>
		<stop  offset="1" style="stop-color:#316A99"/>
	</linearGradient>
	<path id="path1948" fill="url(#path1948_1_)" d="M17.3,0.4c-1.4,0-2.7,0.1-3.9,0.3C9.9,1.3,9.3,2.6,9.3,5v3.1h8.2v1H9.3H6.3
		c-2.4,0-4.4,1.4-5.1,4.1c-0.7,3.1-0.8,5,0,8.3c0.6,2.4,2,4.1,4.3,4.1h2.8V22c0-2.7,2.3-5.1,5.1-5.1h8.1c2.3,0,4.1-1.9,4.1-4.1V5
		c0-2.2-1.9-3.9-4.1-4.2C20.1,0.5,18.7,0.4,17.3,0.4z M12.9,2.9c0.8,0,1.5,0.7,1.5,1.6c0,0.9-0.7,1.5-1.5,1.5
		c-0.8,0-1.5-0.7-1.5-1.5C11.4,3.6,12,2.9,12.9,2.9z"/>
	
		<linearGradient id="path1950_1_" gradientUnits="userSpaceOnUse" x1="286.2339" y1="-309.0953" x2="274.3917" y2="-292.3407" gradientTransform="matrix(0.5625 0 0 -0.568 -135.3879 -148.1649)">
		<stop  offset="0" style="stop-color:#FFD43D"/>
		<stop  offset="1" style="stop-color:#FEE875"/>
	</linearGradient>
	<path id="path1950" fill="url(#path1950_1_)" d="M26.6,9.1v3.6c0,2.8-2.4,5.2-5.1,5.2h-8.1c-2.2,0-4.1,1.9-4.1,4.1v7.8
		c0,2.2,1.9,3.5,4.1,4.1c2.6,0.8,5.1,0.9,8.1,0c2.1-0.6,4.1-1.8,4.1-4.1v-3.1h-8.1v-1h8.1h4.1c2.4,0,3.3-1.7,4.1-4.1
		c0.9-2.6,0.8-5,0-8.3c-0.6-2.4-1.7-4.1-4.1-4.1H26.6z M22.1,28.8c0.8,0,1.5,0.7,1.5,1.5c0,0.9-0.7,1.6-1.5,1.6
		c-0.8,0-1.5-0.7-1.5-1.6C20.5,29.5,21.2,28.8,22.1,28.8z"/>
</g>
</svg>
