<?xml version="1.0" encoding="utf-8"?>
<!-- Generator: Adobe Illustrator 18.1.1, SVG Export Plug-In . SVG Version: 6.00 Build 0)  -->
<svg version="1.1" id="Layer_1" xmlns="http://www.w3.org/2000/svg" xmlns:xlink="http://www.w3.org/1999/xlink" x="0px" y="0px"
	 viewBox="0 0 35 35" enable-background="new 0 0 35 35" xml:space="preserve">
<g>
	<rect x="9.1" y="27.4" fill="#C3DBED" width="1.1" height="0.9"/>
	<rect x="14.2" y="27.3" fill="#C3DBED" width="1.2" height="1.4"/>
	<path fill="#C3DBED" d="M30.8,23.5c0-7.5,0-22.7,0-22.7s-12.6,0-19.7,0C4,0.8,5.4,2,5.4,17.7c0,8.1-0.1,16.1-0.1,16.1
		s11.1,0.1,19,0.1C32.2,33.9,30.8,31,30.8,23.5z M26.6,3.5l1.4,1l-0.3,0.4l-1.2-0.6L26.6,3.5z M22.6,2.3l0.2,1.1l-1.7,0l-0.3-1.2
		L22.6,2.3z M17.2,2.9l1,1.1l-1.4,0.8l-1-1.2L17.2,2.9z M12.5,6.5l1.5,1l-1.1,1.3l-1.5-1L12.5,6.5z M8.8,12l1.9,0.8l-0.6,1.6l-2-0.6
		L8.8,12z M6.7,19l2.2,0.2l-0.4,2.2l-2.1-0.3L6.7,19z M10.2,30.9L9,29.7V31H7.8v-5h1.6c1.3,0,2.4,0.2,2.4,1.7
		c-0.1,1.6-1.2,1.6-1.2,1.6l1.5,1.5H10.2z M16.8,30.9h-1.3v-0.8h-1.3v0.8h-1.3v-3.4c0-1.3,1-1.4,1.7-1.4c0.1,0,0.2,0,0.3,0
		c0.7,0,1.9,0,1.9,1.2V30.9z M19.4,30.8h-1.3v-4.7h1.3V30.8z M24,30.9h-3.2v-4.7l1.3,0v3.5H24V30.9z M20.6,13l-0.3,1.4l-1.4-1.2
		l0.5-1.1L20.6,13z M20.1,9.4L21,8.6l0.8,1.3l-0.5,0.9L20.1,9.4z M20.4,16.7l0.1,1.4l-1.8-0.8l0.1-1.5L20.4,16.7z M21.1,21.1
		l0.8,1.6l-2.2-0.1l-0.4-1.5H21.1z M23.3,8.3l-0.5-1L23.9,7l0.2,0.7L23.3,8.3z M26.5,30.9c-1.4,0-1.7,0-1.7,0v-1.2c0,0,1.4,0,2,0
		s0.6-0.2,0.6-0.4c0-0.2-0.3-0.2-0.9-0.2c-0.6,0-1.7-0.3-1.7-1.5c0-1.2,0.6-1.6,1.8-1.6s1.9,0,1.9,0v0v1.3h-2.2v0.5c0,0,0.4,0,0.9,0
		c0.5,0,1.5,0,1.5,1.5C28.6,30.9,27.9,30.9,26.5,30.9z M26.4,7.4V6.7L27.5,7v0.5L26.4,7.4z M28.8,7.3c0,0-1.3-1.4-3.6-1.2
		c-2.3,0.3-6.4,2.6-7,7.8c-0.6,5.2,1.8,10.8,1.8,10.8H8.9c0,0-0.3-1.8,0.4-5.4c0.7-3.5,1.8-5.9,3.6-9.2s4.7-6.1,8.9-6.5
		c4.2-0.4,7.5,3,7.5,3L28.8,7.3z"/>
</g>
<g id="g3911" transform="translate(-273.27313,-435.95455)" >
	<path id="path3913" fill="none" stroke="#C3DBED" d="M278.6,469.8
		c0,0,0.1-8,0.1-16.1c0-15.7-1.3-16.9,5.7-16.9s19.7,0,19.7,0s0,15.2,0,22.7c0,7.5,1.1,10.4-6.5,10.4S278.6,469.8,278.6,469.8
		L278.6,469.8z"/>
</g>
</svg>
