<?xml version="1.0" encoding="utf-8"?>
<!-- Generator: Adobe Illustrator 18.1.1, SVG Export Plug-In . SVG Version: 6.00 Build 0)  -->
<svg version="1.1" id="Layer_1" xmlns="http://www.w3.org/2000/svg" xmlns:xlink="http://www.w3.org/1999/xlink" x="0px" y="0px"
	 viewBox="0 0 35 35" enable-background="new 0 0 35 35" xml:space="preserve">
<g id="layer1" transform="translate(-273.27313,-435.95455)">
	<path id="path3907" fill="#A72D3A" d="M278.6,469.8
		c0,0,0.1-8,0.1-16.1c0-15.7-1.3-16.9,5.7-16.9s19.7,0,19.7,0s0,15.2,0,22.7c0,7.5,1.4,10.4-6.5,10.4
		C289.7,469.8,278.6,469.8,278.6,469.8L278.6,469.8z"/>
</g>
<g id="layer4" transform="translate(-273.27313,-435.95455)">
	
		<linearGradient id="path3947_1_" gradientUnits="userSpaceOnUse" x1="570.7991" y1="21.3423" x2="576.8925" y2="24.5338" gradientTransform="matrix(1 0 0 -1 -273.2731 470.9546)">
		<stop  offset="0" style="stop-color:#FFFFFF"/>
		<stop  offset="1" style="stop-color:#C0815E"/>
	</linearGradient>
	<path id="path3947" fill="url(#path3947_1_)" d="M294.8,439.7c0,0,1.3,0.3,2.4,2.1
		S304,458,304,458v-11.7l-5.4-8.7l1.5,1.8l2.9-2.4l-3.7-0.3L294.8,439.7z"/>
</g>
<g id="layer3" transform="translate(-273.27313,-435.95455)">
	
		<radialGradient id="path3934_1_" cx="567.1942" cy="-4.6862" r="10.3956" gradientTransform="matrix(1 0 0 -1.5817 -273.2731 445.7722)" gradientUnits="userSpaceOnUse">
		<stop  offset="0" style="stop-color:#FFFFFF"/>
		<stop  offset="1" style="stop-color:#AA4637"/>
	</radialGradient>
	<path id="path3934" opacity="0.6682" fill="url(#path3934_1_)" enable-background="new    " d="
		M283.6,436.9c0,0,8.3,5.5,12.3,6.6c4,1.1,8.2,2.3,8.2,2.3l-9.6,23.5l4.1,0.2l5.4-13.3l-0.2-19.4L283.6,436.9z"/>
	<path id="path3960" fill="#FFFFFF" fill-opacity="0.4396" d="
		M291.4,461.7l8.6,8.3l-16.1-0.3c0,0-0.5-5.1-0.3-7.8c0.2-2.7,1-2.7,1-2.7L291.4,461.7z"/>
</g>
<g id="layer5" transform="translate(-273.27313,-435.95455)">
	<path id="path3958" fill="#010101" fill-opacity="0.3623" d="
		M299.3,469.9l-7.8-8.1l-7.1-2.7l-5.5-12.3l5.9-9.8l-3.9-0.2l-1.6,1.5l-0.6,1.2l-0.4,30.6L299.3,469.9z"/>
	<path id="path3962" opacity="0.5" fill="#84232E" enable-background="new    " d="M304.1,457
		c0,0-7.9,2.5-12.6,4.9s-7.2,8.1-7.2,8.1s10.1-0.5,13.9-0.3c3.8,0.2,5.5,0.2,5.9-5.1S304.1,457,304.1,457L304.1,457z"/>
</g>
<g id="layer7" transform="translate(-273.27313,-435.95455)">
	<path id="path3993" fill="#FFFFFF" d="M281,462v5h1.3v-1.3l1.2,1.2h1.9l-1.5-1.5
		c0,0,1.1,0,1.2-1.6c0-1.5-1.1-1.7-2.4-1.7H281z M282.4,463.4h1.1v0.9h-1.1V463.4z"/>
	<path id="path3997" fill="#FFFFFF" d="M287.8,462c-0.7,0-1.7,0.1-1.7,1.4v3.4h1.3V466h1.3v0.8
		h1.3v-3.6c0-1.1-1.3-1.2-1.9-1.2C288,462,287.9,462,287.8,462z M287.5,463.3h1.2v1.4h-1.2V463.3z"/>
	<rect id="rect4001" x="291.3" y="462" fill="#FFFFFF" width="1.3" height="4.7"/>
	<path id="path4003" fill="#FFFFFF" d="M294.1,462.1v4.7h3.2v-1.3h-1.9v-3.5L294.1,462.1z"/>
	<path id="path4005" fill="#FFFFFF" d="M301.6,462.1v1.3
		h-2.2v0.5c0,0,0.4,0,0.9,0c0.5,0,1.5,0,1.5,1.5c0,1.5-0.7,1.6-2.1,1.6c-1.4,0-1.7,0-1.7,0v-1.2c0,0,1.4,0,2,0s0.6-0.2,0.6-0.4
		c0-0.2-0.3-0.2-0.9-0.2c-0.6,0-1.7-0.3-1.7-1.5s0.6-1.6,1.8-1.6C300.9,462,301.6,462.1,301.6,462.1L301.6,462.1z"/>
</g>
<g id="layer6" transform="translate(-273.27313,-435.95455)">
	<path id="path3966" fill="#FFFFFF" d="M282.2,460.6h11.2
		c0,0-2.5-5.6-1.8-10.8c0.6-5.2,4.7-7.5,7-7.8c2.3-0.3,3.6,1.2,3.6,1.2l0.5-0.8c0,0-3.3-3.4-7.5-3c-4.2,0.4-7.1,3.1-8.9,6.5
		c-1.8,3.4-2.9,5.7-3.6,9.2C281.9,458.8,282.2,460.6,282.2,460.6z"/>
	<path id="path3968" fill="#FFFFFF" d="M280,455l2.2,0.2l-0.4,2.2l-2.1-0.3L280,455z"/>
	<path id="path3970" fill="#FFFFFF" d="M283.4,450.4l0.6-1.6l-1.9-0.8l-0.6,1.8L283.4,450.4z"/>
	<path id="path3972" fill="#FFFFFF" d="M286.2,444.7l1.1-1.3l-1.5-1l-1.2,1.3L286.2,444.7z"/>
	<path id="path3974" fill="#FFFFFF" d="M289.1,439.5l1,1.2l1.4-0.8l-1-1.1L289.1,439.5z"/>
	<path id="path3976" fill="#FFFFFF" d="M294,438.2l0.3,1.2l1.7,0l-0.2-1.1L294,438.2z"/>
	<path id="path3978" fill="#FFFFFF" d="M299.9,439.5l0,0.8l1.2,0.6l0.3-0.4L299.9,439.5z"/>
	<path id="path3980" fill="#FFFFFF" d="M299.6,442.7v0.6l1.1,0.1v-0.5L299.6,442.7z"/>
	<path id="path3982" fill="#FFFFFF" d="M296,443.2l0.5,1l0.8-0.6l-0.2-0.7L296,443.2z"/>
	<path id="path3984" fill="#FFFFFF" d="M294.3,444.5l0.8,1.3l-0.5,0.9l-1.2-1.3L294.3,444.5z"/>
	<path id="path3986" fill="#FFFFFF" d="M292.6,448l-0.5,1.1l1.4,1.2l0.3-1.4L292.6,448z"/>
	<path id="path3988" fill="#FFFFFF" d="M292,451.8l-0.1,1.5l1.8,0.8l-0.1-1.4L292,451.8z"/>
	<path id="path3990" fill="#FFFFFF" d="M292.5,457l0.4,1.5l2.2,0.1l-0.8-1.6H292.5z"/>
</g>
<g id="g3911" transform="translate(-273.27313,-435.95455)">
	<path id="path3913" fill="none" stroke="#5D0A14" d="M278.6,469.8
		c0,0,0.1-8,0.1-16.1c0-15.7-1.3-16.9,5.7-16.9s19.7,0,19.7,0s0,15.2,0,22.7c0,7.5,1.1,10.4-6.5,10.4S278.6,469.8,278.6,469.8
		L278.6,469.8z"/>
</g>
</svg>
