<?xml version="1.0" encoding="utf-8"?>
<!-- Generator: Adobe Illustrator 18.1.1, SVG Export Plug-In . SVG Version: 6.00 Build 0)  -->
<svg version="1.1" id="Layer_1" xmlns="http://www.w3.org/2000/svg" xmlns:xlink="http://www.w3.org/1999/xlink" x="0px" y="0px"
	 viewBox="0 0 35 35" enable-background="new 0 0 35 35" xml:space="preserve">
<polygon fill="#C2DBEE" points="7.7,34 32.1,32.3 34,7.7 26.5,22.8 "/>
<polygon fill="#C2DBEE" points="24.3,25.4 32.1,32.3 30,17.8 "/>
<polygon fill="#C2DBEE" points="7.8,33.9 32.2,32.3 16.8,31.1 "/>
<polygon fill="#C2DBEE" points="3.2,23.2 7.8,33.9 11.6,21.4 "/>
<polygon fill="#C2DBEE" points="10.7,21 24.3,25.4 20.8,11.6 "/>
<polygon fill="#C2DBEE" points="21,12.6 33.2,11.8 23.6,4 "/>
<polygon fill="#C2DBEE" points="19.5,1.1 28.7,1.2 23.1,4.3 "/>
<polygon fill="#C2DBEE" points="1.4,18 0.9,27.4 3.3,23.1 "/>
<path fill="#C2DBEE" d="M1.3,17.8l1.9,5.4l8.3-1.9l9.5-8.8L23.7,4l-4.2-3l-7.2,2.7C10,5.8,5.7,10,5.5,10.1
	C5.3,10.2,2.6,15.3,1.3,17.8z"/>
<path fill="#C2DBEE" d="M8,8.1c4.9-4.9,11.2-7.8,13.6-5.3c2.4,2.5-0.1,8.4-5.1,13.3S5.4,23.9,3,21.5C0.6,19,3.1,12.9,8,8.1z"/>
<path fill="#C2DBEE" d="M7.8,33.9l3.8-12.6l12.6,4.1C19.7,29.7,14.6,33.3,7.8,33.9z"/>
<path fill="#C2DBEE" d="M21,12.5l3.2,12.9c3.8-4,7.2-8.3,8.9-13.7L21,12.5z"/>
<path fill="#C2DBEE" d="M33.2,11.8c1.3-3.9,1.6-9.5-4.5-10.6l-5,2.8L33.2,11.8z"/>
<path fill="#C2DBEE" d="M0.9,27.3c0.2,6.5,4.9,6.6,6.8,6.6L3.2,23.2L0.9,27.3z"/>
<path fill="#C2DBEE" d="M21.1,12.5c2.9,1.8,8.8,5.4,9,5.5c0.2,0.1,2.6-4,3.1-6.3L21.1,12.5z"/>
<path fill="#C2DBEE" d="M11.6,21.3l5.1,9.8c3-1.6,5.4-3.6,7.5-5.8L11.6,21.3z"/>
<path fill="#C2DBEE" d="M3.2,23.2l-0.7,8.6c1.4,1.9,3.2,2,5.2,1.9C6.2,30.2,3.4,23.1,3.2,23.2z"/>
<path fill="#C2DBEE" d="M23.6,4l10.1,1.4c-0.5-2.3-2.2-3.8-5-4.2L23.6,4z"/>
</svg>
