<?xml version="1.0" encoding="utf-8"?>
<!-- Generator: Adobe Illustrator 18.1.1, SVG Export Plug-In . SVG Version: 6.00 Build 0)  -->
<svg version="1.1" id="Layer_1" xmlns="http://www.w3.org/2000/svg" xmlns:xlink="http://www.w3.org/1999/xlink" x="0px" y="0px"
	 viewBox="0 0 210 207" enable-background="new 0 0 210 207" xml:space="preserve">
<linearGradient id="SVGID_1_" gradientUnits="userSpaceOnUse" x1="179.7506" y1="220.2548" x2="137.9506" y2="146.4548">
	<stop  offset="0" style="stop-color:#F68F71"/>
	<stop  offset="0" style="stop-color:#F68F71"/>
	<stop  offset="0.41" style="stop-color:#DC5242"/>
	<stop  offset="0.99" style="stop-color:#A72C32"/>
	<stop  offset="1" style="stop-color:#A72C32"/>
</linearGradient>
<polygon fill-rule="evenodd" clip-rule="evenodd" fill="url(#SVGID_1_)" points="46.1,202.3 192.5,192.4 203.8,44.7 159.2,135.1 "/>
<linearGradient id="SVGID_2_" gradientUnits="userSpaceOnUse" x1="200.5744" y1="158.2665" x2="146.7055" y2="122.1173">
	<stop  offset="0" style="stop-color:#9B3F34"/>
	<stop  offset="0" style="stop-color:#9B3F34"/>
	<stop  offset="0.99" style="stop-color:#A23E36"/>
	<stop  offset="1" style="stop-color:#A23E36"/>
</linearGradient>
<polygon fill-rule="evenodd" clip-rule="evenodd" fill="url(#SVGID_2_)" points="145.9,150.6 192.8,192.2 180.2,105.4 "/>
<linearGradient id="SVGID_3_" gradientUnits="userSpaceOnUse" x1="157.4741" y1="222.4935" x2="103.6053" y2="186.3443">
	<stop  offset="0" style="stop-color:#9B3F34"/>
	<stop  offset="0" style="stop-color:#9B3F34"/>
	<stop  offset="0.99" style="stop-color:#A23E36"/>
	<stop  offset="1" style="stop-color:#A23E36"/>
</linearGradient>
<polygon fill-rule="evenodd" clip-rule="evenodd" fill="url(#SVGID_3_)" points="46.5,202.1 192.9,192.2 100.7,185 "/>
<linearGradient id="SVGID_4_" gradientUnits="userSpaceOnUse" x1="44.3763" y1="132.1012" x2="52.7273" y2="186.3742">
	<stop  offset="0" style="stop-color:#FFFFFF"/>
	<stop  offset="0" style="stop-color:#FFFFFF"/>
	<stop  offset="0.23" style="stop-color:#E28B6F"/>
	<stop  offset="0.46" style="stop-color:#DA6144"/>
	<stop  offset="0.99" style="stop-color:#A60003"/>
	<stop  offset="1" style="stop-color:#A60003"/>
</linearGradient>
<polygon fill-rule="evenodd" clip-rule="evenodd" fill="url(#SVGID_4_)" points="19,137.5 46.7,202.1 69.7,126.6 "/>
<linearGradient id="SVGID_5_" gradientUnits="userSpaceOnUse" x1="101.8128" y1="81.4204" x2="104.8897" y2="136.8104">
	<stop  offset="0" style="stop-color:#FFFFFF"/>
	<stop  offset="0" style="stop-color:#FFFFFF"/>
	<stop  offset="0.23" style="stop-color:#E08A6D"/>
	<stop  offset="0.56" style="stop-color:#C14435"/>
	<stop  offset="0.99" style="stop-color:#B13430"/>
	<stop  offset="1" style="stop-color:#B13430"/>
</linearGradient>
<polygon fill-rule="evenodd" clip-rule="evenodd" fill="url(#SVGID_5_)" points="64,124.7 145.9,150.9 124.7,67.8 "/>
<linearGradient id="SVGID_6_" gradientUnits="userSpaceOnUse" x1="152.7841" y1="30.2339" x2="161.9951" y2="69.9289">
	<stop  offset="0" style="stop-color:#FFFFFF"/>
	<stop  offset="0" style="stop-color:#FFFFFF"/>
	<stop  offset="0.18" style="stop-color:#DF8063"/>
	<stop  offset="0.4" style="stop-color:#C94D37"/>
	<stop  offset="0.99" style="stop-color:#B13430"/>
	<stop  offset="1" style="stop-color:#B13430"/>
</linearGradient>
<polygon fill-rule="evenodd" clip-rule="evenodd" fill="url(#SVGID_6_)" points="125.7,73.8 199,69 141.6,22.2 "/>
<linearGradient id="SVGID_7_" gradientUnits="userSpaceOnUse" x1="124.656" y1="16.252" x2="164.3499" y2="-3.595">
	<stop  offset="0" style="stop-color:#FFFFFF"/>
	<stop  offset="0" style="stop-color:#FFFFFF"/>
	<stop  offset="0.54" style="stop-color:#C94838"/>
	<stop  offset="0.99" style="stop-color:#C12D2F"/>
	<stop  offset="1" style="stop-color:#C12D2F"/>
</linearGradient>
<polygon fill-rule="evenodd" clip-rule="evenodd" fill="url(#SVGID_7_)" points="117.2,5.2 172.2,5.5 138.4,24.1 "/>
<linearGradient id="SVGID_8_" gradientUnits="userSpaceOnUse" x1="9.5839" y1="118.2654" x2="12.8509" y2="150.9754">
	<stop  offset="0" style="stop-color:#FFFFFF"/>
	<stop  offset="0" style="stop-color:#FFFFFF"/>
	<stop  offset="0.31" style="stop-color:#DA6548"/>
	<stop  offset="0.99" style="stop-color:#C14433"/>
	<stop  offset="1" style="stop-color:#C14433"/>
</linearGradient>
<polygon fill-rule="evenodd" clip-rule="evenodd" fill="url(#SVGID_8_)" points="8.4,106.3 5.7,162.8 19.8,137 "/>
<path fill-rule="evenodd" clip-rule="evenodd" fill="#FFFFFF" d="M7.6,105.4L19.1,138l50-11.2l57.1-53l16.1-51.1L116.9,4.7
	L73.8,20.8C60.2,33.5,33.9,58.5,32.9,58.9C32,59.4,15.5,90.5,7.6,105.4z"/>
<linearGradient id="SVGID_9_" gradientUnits="userSpaceOnUse" x1="-12.8809" y1="159.8189" x2="140.6932" y2="1.9017">
	<stop  offset="0" style="stop-color:#BD0012"/>
	<stop  offset="0" style="stop-color:#BD0012"/>
	<stop  offset="7.000000e-02" style="stop-color:#FFFFFF"/>
	<stop  offset="0.17" style="stop-color:#FFFFFF"/>
	<stop  offset="0.27" style="stop-color:#C95841"/>
	<stop  offset="0.33" style="stop-color:#983734"/>
	<stop  offset="0.46" style="stop-color:#AE4231"/>
	<stop  offset="0.72" style="stop-color:#B93E2F"/>
	<stop  offset="0.99" style="stop-color:#DE4E2B"/>
	<stop  offset="1" style="stop-color:#DE4E2B"/>
</linearGradient>
<path fill-rule="evenodd" clip-rule="evenodd" fill="url(#SVGID_9_)" d="M48,46.8C77.4,17.6,115.4,0.3,129.9,15
	c14.6,14.7-0.9,50.4-30.3,79.6s-66.9,47.4-81.5,32.7C3.6,112.6,18.6,75.9,48,46.8z"/>
<linearGradient id="SVGID_10_" gradientUnits="userSpaceOnUse" x1="104.7567" y1="175.7428" x2="58.5026" y2="164.3269">
	<stop  offset="0" style="stop-color:#9F3633"/>
	<stop  offset="0" style="stop-color:#9F3633"/>
	<stop  offset="0.54" style="stop-color:#A73532"/>
	<stop  offset="0.99" style="stop-color:#B13439"/>
	<stop  offset="1" style="stop-color:#B13439"/>
</linearGradient>
<path fill-rule="evenodd" clip-rule="evenodd" fill="url(#SVGID_10_)" d="M46.7,202.1l22.9-75.7l75.9,24.4
	C118,176.5,87.5,198.3,46.7,202.1z"/>
<linearGradient id="SVGID_11_" gradientUnits="userSpaceOnUse" x1="184.2053" y1="120.2237" x2="143.1115" y2="83.3925">
	<stop  offset="0" style="stop-color:#923C36"/>
	<stop  offset="0" style="stop-color:#923C36"/>
	<stop  offset="0.99" style="stop-color:#AA3531"/>
	<stop  offset="1" style="stop-color:#AA3531"/>
</linearGradient>
<path fill-rule="evenodd" clip-rule="evenodd" fill="url(#SVGID_11_)" d="M126.2,73.6l19.5,77.2c22.9-24.1,43.5-50,53.6-82.1
	L126.2,73.6z"/>
<linearGradient id="SVGID_12_" gradientUnits="userSpaceOnUse" x1="199.303" y1="52.6467" x2="178.833" y2="30.7627">
	<stop  offset="0" style="stop-color:#8D3E36"/>
	<stop  offset="0" style="stop-color:#8D3E36"/>
	<stop  offset="0.99" style="stop-color:#AA3E37"/>
	<stop  offset="1" style="stop-color:#AA3E37"/>
</linearGradient>
<path fill-rule="evenodd" clip-rule="evenodd" fill="url(#SVGID_12_)" d="M199.1,69.1c7.8-23.5,9.6-57.3-27.2-63.6l-30.2,16.7
	L199.1,69.1z"/>
<path fill-rule="evenodd" clip-rule="evenodd" fill="#AA3E35" d="M5.7,162.5c1.1,38.8,29.1,39.4,41,39.8l-27.6-64.4L5.7,162.5z"/>
<radialGradient id="SVGID_13_" cx="149.51" cy="84.1" r="50.36" gradientUnits="userSpaceOnUse">
	<stop  offset="0" style="stop-color:#B13430"/>
	<stop  offset="0" style="stop-color:#B13430"/>
	<stop  offset="0.99" style="stop-color:#923934"/>
	<stop  offset="1" style="stop-color:#923934"/>
</radialGradient>
<path fill-rule="evenodd" clip-rule="evenodd" fill="url(#SVGID_13_)" d="M126.3,73.7c17.6,10.8,53.1,32.6,53.8,33
	c1.1,0.6,15.3-23.9,18.5-37.8L126.3,73.7z"/>
<radialGradient id="SVGID_14_" cx="79.77" cy="150.46" r="66.9469" gradientUnits="userSpaceOnUse">
	<stop  offset="0" style="stop-color:#AE3531"/>
	<stop  offset="0" style="stop-color:#AE3531"/>
	<stop  offset="0.99" style="stop-color:#953A36"/>
	<stop  offset="1" style="stop-color:#953A36"/>
</radialGradient>
<path fill-rule="evenodd" clip-rule="evenodd" fill="url(#SVGID_14_)" d="M69.5,126.4l30.6,59c18.1-9.8,32.2-21.7,45.2-34.5
	L69.5,126.4z"/>
<linearGradient id="SVGID_15_" gradientUnits="userSpaceOnUse" x1="32.3512" y1="202.0492" x2="15.6692" y2="145.4522">
	<stop  offset="0" style="stop-color:#994939"/>
	<stop  offset="0" style="stop-color:#994939"/>
	<stop  offset="0.43" style="stop-color:#AA3A36"/>
	<stop  offset="0.99" style="stop-color:#B83936"/>
	<stop  offset="1" style="stop-color:#B83936"/>
</linearGradient>
<path fill-rule="evenodd" clip-rule="evenodd" fill="url(#SVGID_15_)" d="M19,137.9l-4.3,51.6c8.2,11.2,19.4,12.1,31.2,11.3
	C37.4,179.5,20.3,137,19,137.9z"/>
<linearGradient id="SVGID_16_" gradientUnits="userSpaceOnUse" x1="160.3228" y1="14.5085" x2="197.7228" y2="31.0175">
	<stop  offset="0" style="stop-color:#B9392F"/>
	<stop  offset="0" style="stop-color:#B9392F"/>
	<stop  offset="0.44" style="stop-color:#A23A36"/>
	<stop  offset="0.99" style="stop-color:#8D463A"/>
	<stop  offset="1" style="stop-color:#8D463A"/>
</linearGradient>
<path fill-rule="evenodd" clip-rule="evenodd" fill="url(#SVGID_16_)" d="M141.6,22.3l60.7,8.5c-3.2-13.7-13.2-22.6-30.1-25.4
	L141.6,22.3z"/>
</svg>
