<?xml version="1.0" encoding="utf-8"?>
<!-- Generator: Adobe Illustrator 18.1.1, SVG Export Plug-In . SVG Version: 6.00 Build 0)  -->
<svg version="1.1" id="Layer_2" xmlns="http://www.w3.org/2000/svg" xmlns:xlink="http://www.w3.org/1999/xlink" x="0px" y="0px"
	 viewBox="0 0 35 35" enable-background="new 0 0 35 35" xml:space="preserve">
<path fill="#C3DBED" d="M34,18.4c-0.4-4-9-6.8-18.4-4.6c-8.4,2-15.1,2.7-14.5,9.5c0.4,3.9,9.4,6.3,18.2,4.5
	C27.7,26.1,34.5,23.2,34,18.4z"/>
<path fill="#C3DBED" d="M27.8,15.9c0-1.4,0.4-5.7-0.7-6.3c-1.2-0.7-9.1-2.9-11.9-3.1c-4.7-0.3-4.8,1.9-5,2.4c-0.5,1-0.8,4.1-1.7,5.6
	c-1,1.8-1.2,6-1.2,6c2.5,2.4,6.8,2.2,10.1,2.4c8.4,0.4,10.4-2.1,10.4-2.1S27.8,17.6,27.8,15.9z"/>
<path fill="#C3DBED" d="M28.1,20.6c0-0.4-0.3-3.9-0.3-3.9s-0.7,2-10.1,2.2C8,19,7.9,16.1,7.9,16.1s-0.6,3.8-0.6,4.3
	c0,1.1,2.4,2.6,10.4,2.6C23.5,22.9,28.1,21.6,28.1,20.6z"/>
<path fill="#C3DBED" d="M23.7,10.1C23.7,10.1,23.7,10.1,23.7,10.1c0.1-1.4,4.7,0.1,3.5-0.6C26,8.9,18.2,6.6,15.3,6.5
	c-4.7-0.3-4.8,1.9-5,2.4c0,0,0.4,1.7,1.9,1.1C19.2,7,23.4,9.9,23.7,10.1z"/>
<path fill="#C3DBED" d="M24.4,13.1c0-2.2-2.6-4-5.9-4s-5.9,1.8-5.9,4s2.6,3.8,5.9,3.8S24.4,15.3,24.4,13.1z"/>
</svg>
