<?xml version="1.0" encoding="utf-8"?>
<!-- Generator: Adobe Illustrator 18.1.1, SVG Export Plug-In . SVG Version: 6.00 Build 0)  -->
<svg version="1.1" id="Layer_1" xmlns="http://www.w3.org/2000/svg" xmlns:xlink="http://www.w3.org/1999/xlink" x="0px" y="0px"
	 viewBox="0 0 35 35" enable-background="new 0 0 35 35" xml:space="preserve">
<path fill="#FBB03D" stroke="#000000" stroke-miterlimit="10" d="M33.2,15.6c-1.2-1.2-3.1-1.2-4.3,0h-6.2l4.4-4.4c1.7,0,3-1.4,3-3
	c0-1.7-1.4-3-3-3c-1.7,0-3,1.4-3,3l-4.4,4.4V6.4c1.2-1.2,1.2-3.1,0-4.3c-1.2-1.2-3.1-1.2-4.3,0c-1.2,1.2-1.2,3.1,0,4.3v6.2l-4.4-4.4
	c0-1.7-1.4-3-3-3c-1.7,0-3,1.4-3,3c0,1.7,1.4,3,3,3l4.4,4.4H6.1c-1.2-1.2-3.1-1.2-4.3,0c-1.2,1.2-1.2,3.1,0,4.3
	c1.2,1.2,3.1,1.2,4.3,0h6.2l-4.4,4.4c-1.7,0-3,1.4-3,3c0,1.7,1.4,3,3,3c1.7,0,3-1.4,3-3l4.4-4.4v6.2c-1.2,1.2-1.2,3.1,0,4.3
	c1.2,1.2,3.1,1.2,4.3,0c1.2-1.2,1.2-3.1,0-4.3V23l4.4,4.4c0,1.7,1.4,3,3,3c1.7,0,3-1.4,3-3c0-1.7-1.4-3-3-3l-4.4-4.4h6.2
	c1.2,1.2,3.1,1.2,4.3,0C34.4,18.8,34.4,16.8,33.2,15.6z"/>
</svg>
